<svg width="32" height="32" xmlns="http://www.w3.org/2000/svg"><path d="M30 7v6.573a2.722 2.722 0 0 0-1.077-.22c-1.487 0-2.692 1.185-2.692 2.647 0 1.462 1.205 2.647 2.692 2.647.383 0 .747-.079 1.077-.22V25H2v-6.574c.33.142.694.221 1.077.221 1.487 0 2.692-1.185 2.692-2.647 0-1.462-1.205-2.647-2.692-2.647a2.74 2.74 0 0 0-1.078.22L2.001 7H30Zm-2.001 2H4.001L4 11.443l.123.026c2.017.454 3.546 2.197 3.642 4.318L7.77 16c0 2.217-1.563 4.062-3.647 4.531L4 20.556 4.001 23h23.998L28 20.556l-.122-.025c-2.017-.454-3.546-2.197-3.643-4.318L24.231 16c0-2.217 1.563-4.062 3.647-4.531l.122-.026L27.999 9Z"/><path d="m9.61 10.196-.007 1.077 1.077.006.006-1.077-1.076-.006Zm-.014 2.154-.006 1.076 1.077.007.006-1.077-1.077-.006Zm-.013 2.153-.006 1.077 1.077.007.006-1.077-1.077-.007Zm-.013 2.154-.007 1.077 1.077.007.007-1.077-1.077-.007Zm-.013 2.154-.007 1.077 1.077.006.007-1.076-1.077-.007Zm-.013 2.154-.005.74 1.077.007.005-.74-1.077-.007Zm12.12-7.873v1.64h-2.692v1.641h2.692v1.641h-2.692v2.188h-1.615v-2.188h-2.693v-1.64h2.693v-1.641h-2.693v-1.64h1.077v-1.641h1.616v1.64h1.615v-1.64h1.615v1.64z"/></svg>