<svg width="32" height="32" xmlns="http://www.w3.org/2000/svg"><path d="M26.714 6v19H5.286V6h21.428Zm-2 2H7.285v15h17.429V8Z"/><path d="M7.215 11.379H3.02v8.31h4.195v2.144H.93V9.2h6.285v2.18Zm17.597 8.274h4.196v-8.31h-4.196V9.2h6.286v12.634h-6.286v-2.18Zm-1.882 1.092c.032.088.048 0 .048 0H9.05s.951-4.443 2.846-4.443c1.896 0 1.67 1.11 3.094 1.11 1.425 0 2.014-3.426 3.928-3.426 1.747 0 3.686 5.84 4.012 6.759Zm-10.296-10.46c.888 0 1.607.709 1.607 1.584 0 .875-.719 1.583-1.607 1.583a1.634 1.634 0 0 1-1.14-.466 1.557 1.557 0 0 1-.468-1.117c0-.875.719-1.583 1.608-1.583Z"/></svg>