<svg width="32" height="32" xmlns="http://www.w3.org/2000/svg"><path d="M25.29 18.491h-6.676v2.08h6.679l-.003-2.08Zm3.681 3.682H18.614v2.08h10.36l-.003-2.08Zm-1.838 3.687h-8.52v2.08h8.52v-2.08Zm-1.82-11.094-.544-5.432h-5.185v-.7a4.575 4.575 0 0 0-9.149 0v.7H5.053l-.101.664-1.831 16.91-.095 1.02H15.2v-2.025H5.228l1.627-14.511h3.58v3.673h2.052v-3.673h5.102v3.673a853.185 853.185 0 0 1 1.994 0v-3.673h3.46l.335 3.674h.027c1.221.008 1.857.008 1.908 0 .013-.003.013-.102 0-.3ZM12.468 9.4v-.708c0-.92.484-1.754 1.27-2.215a2.512 2.512 0 0 1 2.543 0 2.556 2.556 0 0 1 1.27 2.215V9.4h-5.083Z"/></svg>