<svg width="32" height="32" xmlns="http://www.w3.org/2000/svg"><path d="M3.72 26.5h15.75v-1.834H5.72V7.363h13.75V5.5H3.72z"/><path d="m10.097 14.492-1.407.74a.188.188 0 0 1-.273-.2l.269-1.565-1.138-1.11a.188.188 0 0 1 .104-.32l1.573-.229.703-1.425a.188.188 0 0 1 .338 0l.703 1.425 1.572.228a.188.188 0 0 1 .104.322l-1.137 1.109.268 1.566a.188.188 0 0 1-.273.198l-1.406-.74Zm0 6.17-1.407.74a.188.188 0 0 1-.273-.2l.269-1.565-1.138-1.11a.188.188 0 0 1 .104-.32l1.573-.229.703-1.425a.188.188 0 0 1 .338 0l.703 1.425 1.572.229a.188.188 0 0 1 .104.32l-1.137 1.11.268 1.566a.188.188 0 0 1-.273.198l-1.406-.739ZM28.525 26.5h-9.706v-1.834h7.707V7.363H18.82V5.5h9.706z"/><path d="M14.542 10.842h9.55v2h-9.55zm0 4.158h9.55v2h-9.55zm0 4.159h9.55v2h-9.55z"/></svg>