<svg width="32" height="32" xmlns="http://www.w3.org/2000/svg"><path d="M24.64 13.493c0-4.992-3.84-8.928-8.64-8.928-4.8 0-8.64 3.936-8.64 8.928 0 3.456 2.016 6.624 4.992 8.064l-1.616 5.206 1.898.672 2.192-7.22-.938-.289c-2.784-.96-4.418-3.36-4.418-6.433 0-3.84 2.786-6.712 6.53-6.712s6.577 2.872 6.577 6.712c0 2.976-1.681 5.473-4.465 6.433l-.864.288 2.4 7.22 1.824-.575-1.824-5.206c2.976-1.536 4.992-4.704 4.992-8.16Zm-18.72 5.28c0-.768.288-1.536.768-2.208.288-.384.288-1.056-.192-1.344-.384-.288-1.056-.288-1.344.192C4.384 16.373 4 17.621 4 18.87c0 1.92.96 3.648 2.592 4.704l-1.136 2.71 1.728.768 1.904-4.438-.864-.384c-1.44-.768-2.304-2.016-2.304-3.456ZM28 18.677c0-1.248-.384-2.4-1.152-3.456-.26-.346-.83-.458-1.221-.266a.761.761 0 0 0-.123.074c-.384.288-.48.96-.192 1.344.48.672.768 1.44.768 2.208 0 1.44-.864 2.784-2.304 3.36l-.864.384 2.112 4.438 1.728-.768-1.344-2.614C27.04 22.325 28 20.597 28 18.677Z"/></svg>