<svg width="32" height="32" xmlns="http://www.w3.org/2000/svg"><path d="m9.8 5.816-.904-.536-6.51 4.108-.351.264V29.08h13.723V9.388L9.799 5.816Zm3.66 21.127H4.254V10.51l4.603-2.889 4.603 2.709v16.612Z"/><path d="M8.872 14.303a1.625 1.625 0 1 0 0-3.25 1.625 1.625 0 0 0 0 3.25ZM17.19 27.43l1.854 1.269 8.867-15.36-3.374-6.072-.514-.916-7.691.303-.437.052-1.018 1.763 1.813 1.295m.004-.007.694-1.197 5.43-.2 2.632 4.647-8.26 14.445"/><path d="M19.49 14.153a1.625 1.625 0 1 0 1.626-2.815 1.625 1.625 0 0 0-1.625 2.815Z"/></svg>